<svg width="11" height="14" viewBox="0 0 11 14" fill="none" xmlns="http://www.w3.org/2000/svg">
<path d="M9.14861 3.39583H8.40053V2.68583C8.40517 2.40189 8.29704 2.12769 8.09984 1.92335C7.90263 1.719 7.63245 1.60119 7.34852 1.59574H6.78239C6.73343 1.31782 6.58811 1.06603 6.37194 0.884618C6.15578 0.703202 5.8826 0.60376 5.6004 0.60376C5.3182 0.60376 5.04502 0.703202 4.82885 0.884618C4.61269 1.06603 4.46737 1.31782 4.41841 1.59574H1.05215C0.768217 1.60119 0.498035 1.719 0.300832 1.92335C0.103629 2.12769 -0.00450278 2.40189 0.000143791 2.68583V10.5061C-0.00450278 10.7901 0.103629 11.0643 0.300832 11.2686C0.498035 11.4729 0.768218 11.5908 1.05215 11.5962H1.80023V12.3062C1.79558 12.5901 1.90371 12.8643 2.10091 13.0687C2.29812 13.273 2.5683 13.3908 2.85223 13.3963H9.14861C9.43253 13.3908 9.70272 13.273 9.89992 13.0687C10.0971 12.8643 10.2053 12.5901 10.2006 12.3062V4.48591C10.2053 4.20197 10.0971 3.92777 9.89992 3.72343C9.70271 3.51909 9.43253 3.40128 9.14861 3.39583ZM5.6004 1.39574C5.70549 1.39726 5.80575 1.44008 5.87953 1.51494C5.9533 1.58979 5.99465 1.69067 5.99465 1.79577C5.99465 1.90087 5.95329 2.00174 5.87951 2.07659C5.80574 2.15144 5.70547 2.19426 5.60038 2.19578C5.49529 2.19425 5.39503 2.15143 5.32125 2.07658C5.24748 2.00173 5.20612 1.90085 5.20613 1.79575C5.20613 1.69065 5.24749 1.58977 5.32127 1.51492C5.39504 1.44007 5.49531 1.39726 5.6004 1.39574ZM1.05215 10.7962C0.98043 10.7907 0.91376 10.7572 0.866592 10.7029C0.819425 10.6486 0.795562 10.5779 0.80018 10.5061V2.68583C0.795562 2.61406 0.819424 2.54335 0.866591 2.48906C0.913759 2.43476 0.98043 2.40124 1.05215 2.39578H4.43472L3.7175 3.113C3.64429 3.18838 3.60369 3.28954 3.60446 3.39462C3.60523 3.49969 3.64731 3.60025 3.72162 3.67455C3.79592 3.74885 3.89647 3.79093 4.00155 3.79169C4.10663 3.79246 4.20778 3.75185 4.28316 3.67864L5.08429 2.87752C5.35667 3.00566 5.66714 3.02728 5.95466 2.93814C6.24218 2.84899 6.48596 2.65552 6.63808 2.39576L7.34852 2.39578C7.42023 2.40124 7.48691 2.43476 7.53408 2.48905C7.58124 2.54335 7.60511 2.61406 7.60049 2.68583V10.5061C7.60511 10.5779 7.58124 10.6486 7.53408 10.7029C7.48691 10.7572 7.42024 10.7907 7.34852 10.7962H1.05215ZM9.40057 12.3062C9.40519 12.378 9.38133 12.4487 9.33416 12.503C9.28699 12.5573 9.22032 12.5908 9.14861 12.5962H2.85223C2.78051 12.5908 2.71384 12.5573 2.66667 12.503C2.61951 12.4487 2.59564 12.378 2.60026 12.3062V11.5962H7.34852C7.63245 11.5908 7.90263 11.4729 8.09984 11.2686C8.29704 11.0643 8.40517 10.7901 8.40053 10.5061V4.19587H9.14861C9.22032 4.20133 9.28699 4.23485 9.33416 4.28914C9.38132 4.34344 9.40519 4.41414 9.40057 4.48591V12.3062Z" fill="black"/>
<path d="M6.4009 5.19592H2.0007C1.89561 5.19745 1.79535 5.24027 1.72157 5.31512C1.6478 5.38997 1.60644 5.49085 1.60645 5.59595C1.60645 5.70105 1.64781 5.80193 1.72158 5.87678C1.79536 5.95163 1.89563 5.99444 2.00072 5.99596H6.4009C6.50599 5.99444 6.60626 5.95162 6.68003 5.87677C6.75381 5.80192 6.79516 5.70104 6.79516 5.59594C6.79516 5.49084 6.75381 5.38997 6.68003 5.31511C6.60626 5.24026 6.50599 5.19745 6.4009 5.19592ZM6.4009 7.19601H2.0007C1.89561 7.19754 1.79535 7.24036 1.72157 7.31521C1.6478 7.39006 1.60644 7.49094 1.60645 7.59604C1.60645 7.70114 1.64781 7.80202 1.72158 7.87687C1.79536 7.95172 1.89563 7.99453 2.00072 7.99605H6.4009C6.50599 7.99453 6.60626 7.95171 6.68003 7.87686C6.75381 7.80201 6.79516 7.70113 6.79516 7.59603C6.79516 7.49093 6.75381 7.39006 6.68003 7.3152C6.60626 7.24035 6.50599 7.19754 6.4009 7.19601ZM6.4009 8.9961C6.29576 8.99755 6.19543 9.04033 6.12159 9.11519C6.04776 9.19005 6.00636 9.29098 6.00637 9.39612C6.00637 9.50127 6.04777 9.60219 6.1216 9.67705C6.19544 9.7519 6.29578 9.79468 6.40092 9.79613C6.50605 9.79468 6.60639 9.7519 6.68023 9.67703C6.75406 9.60217 6.79545 9.50125 6.79545 9.39611C6.79545 9.29096 6.75405 9.19004 6.68021 9.11518C6.60638 9.04032 6.50604 8.99754 6.4009 8.9961ZM4.80083 8.9961C4.69574 8.99762 4.59547 9.04044 4.5217 9.11529C4.44793 9.19015 4.40657 9.29102 4.40657 9.39612C4.40658 9.50122 4.44794 9.6021 4.52171 9.67695C4.59549 9.7518 4.69576 9.79461 4.80085 9.79613C4.90593 9.79461 5.0062 9.75179 5.07997 9.67694C5.15375 9.60208 5.1951 9.5012 5.1951 9.3961C5.1951 9.29101 5.15374 9.19013 5.07996 9.11528C5.00618 9.04043 4.90591 8.99762 4.80083 8.9961Z" fill="black"/>
</svg>
