<svg width="57" height="20" viewBox="0 0 57 20" fill="none" xmlns="http://www.w3.org/2000/svg">
<mask id="mask0_620_239" style="mask-type:luminance" maskUnits="userSpaceOnUse" x="37" y="0" width="20" height="20">
<path d="M37 -1.74846e-06L57 0L57 20L37 20L37 -1.74846e-06Z" fill="white"/>
</mask>
<g mask="url(#mask0_620_239)">
<path d="M46.9997 19.1082L47.5497 18.6165C47.8163 18.3748 54.0913 12.7498 54.0913 8.25817C54.0913 4.34984 50.908 1.1665 46.9997 1.1665C43.0913 1.1665 39.9079 4.34984 39.9079 8.25817C39.9079 12.7582 46.183 18.3832 46.4497 18.6165L46.9997 19.1082ZM46.9997 2.83317C49.9913 2.83317 52.4246 5.2665 52.4246 8.25817C52.4246 11.0665 48.908 15.0248 46.9997 16.8582C45.0913 15.0248 41.5746 11.0665 41.5746 8.25817C41.5746 5.2665 44.008 2.83317 46.9997 2.83317Z" fill="white"/>
<path d="M46.9997 10.8332C48.5664 10.8332 49.833 9.55813 49.833 7.99984C49.833 6.4415 48.558 5.1665 46.9997 5.1665C45.433 5.1665 44.1663 6.4415 44.1663 7.99984C44.1663 9.55813 45.433 10.8332 46.9997 10.8332ZM46.9997 6.83317C47.6414 6.83317 48.1664 7.35817 48.1664 7.99984C48.1664 8.64146 47.6414 9.16655 46.9997 9.16655C46.358 9.16655 45.833 8.64146 45.833 7.99984C45.833 7.35817 46.358 6.83317 46.9997 6.83317Z" fill="white"/>
</g>
<circle cx="6" cy="10" r="5" transform="rotate(-90 6 10)" stroke="white" stroke-width="2"/>
<path d="M16.7192 9.76056L16.7251 10.698L12.907 10.722L12.9011 9.78452L16.7192 9.76056ZM22.2387 9.72594L22.2445 10.6634L18.4264 10.6874L18.4205 9.74989L22.2387 9.72594ZM27.7581 9.69131L27.764 10.6288L23.9459 10.6527L23.94 9.71526L27.7581 9.69131ZM33.2775 9.65669L33.2834 10.5942L29.4653 10.6181L29.4594 9.68064L33.2775 9.65669ZM38.7969 9.62206L38.8028 10.5595L34.9847 10.5835L34.9788 9.64601L38.7969 9.62206Z" fill="white"/>
</svg>
