<svg width="20" height="59" viewBox="0 0 20 59" fill="none" xmlns="http://www.w3.org/2000/svg">
<mask id="mask0_1_869" style="mask-type:luminance" maskUnits="userSpaceOnUse" x="0" y="39" width="20" height="20">
<path d="M0 39H20V59H0V39Z" fill="white"/>
</mask>
<g mask="url(#mask0_1_869)">
<path d="M10.0002 58.1082L10.5502 57.6165C10.8168 57.3748 17.0918 51.7498 17.0918 47.2582C17.0918 43.3498 13.9085 40.1665 10.0002 40.1665C6.09182 40.1665 2.9084 43.3498 2.9084 47.2582C2.9084 51.7582 9.18349 57.3832 9.45015 57.6165L10.0002 58.1082ZM10.0002 41.8332C12.9918 41.8332 15.4251 44.2665 15.4251 47.2582C15.4251 50.0665 11.9085 54.0248 10.0002 55.8582C8.09182 54.0248 4.57507 50.0665 4.57507 47.2582C4.57507 44.2665 7.00849 41.8332 10.0002 41.8332Z" fill="#010101"/>
<path d="M9.99971 49.8332C11.5664 49.8332 12.833 48.5581 12.833 46.9998C12.833 45.4415 11.558 44.1665 9.99971 44.1665C8.43304 44.1665 7.16629 45.4415 7.16629 46.9998C7.16629 48.5581 8.43304 49.8332 9.99971 49.8332ZM9.99971 45.8332C10.6414 45.8332 11.1664 46.3582 11.1664 46.9998C11.1664 47.6415 10.6414 48.1665 9.99971 48.1665C9.35804 48.1665 8.83296 47.6415 8.83296 46.9998C8.83296 46.3582 9.35804 45.8332 9.99971 45.8332Z" fill="#010101"/>
</g>
<circle cx="10" cy="6" r="5" fill="white" stroke="black" stroke-width="2"/>
<path d="M10.2397 16.7192L9.3022 16.7251L9.27825 12.907L10.2157 12.9011L10.2397 16.7192ZM10.2743 22.2387L9.33682 22.2445L9.31287 18.4264L10.2504 18.4205L10.2743 22.2387ZM10.3089 27.7581L9.37145 27.764L9.3475 23.9459L10.285 23.94L10.3089 27.7581ZM10.3436 33.2775L9.40608 33.2834L9.38212 29.4653L10.3196 29.4594L10.3436 33.2775ZM10.3782 38.7969L9.4407 38.8028L9.41675 34.9847L10.3542 34.9788L10.3782 38.7969Z" fill="black"/>
</svg>
